<svg xmlns="http://www.w3.org/2000/svg" width="89.131" height="70.919" viewBox="0 0 38 30" shape-rendering="geometricPrecision" text-rendering="geometricPrecision" image-rendering="optimizeQuality" fill-rule="evenodd" clip-rule="evenodd"><defs><style>.fil0{fill:currentColor}</style></defs><g id="Layer_x0020_1"><g id="_2298358921040"><path class="fil0" d="M25 0L0 11h5c4 1 8 4 11 6l2 2 4 4c1 1 1 2 2 3s2 4 2 4c0-2-1-5-2-6 0-2-1-2-2-4l-1-1-2-2v-1c-1-1-2-2-3-2-2-2-3-3-6-4H9l16-7 1 2V0h-1z"/><path class="fil0" d="M23 19l1 1c2 3 4 7 4 10 1-1 0-4-1-6-1-4-2-7-5-10-1-2-2-2-3-3l16-5c1 0 1 1 1 2l2 3v2L36 3l-23 7s1 0 3 1l3 3 3 3c1 1 1 2 1 2z"/></g></g></svg>